<svg id="Layer_1" data-name="Layer 1" xmlns="http://www.w3.org/2000/svg" viewBox="0 0 82.22 142.55"><title>arrow-right</title><path d="M457.86,107.32,407.73,58.83c-1.43-1.39-2.89-2.77-4.21-4.27-4.12-4.66-4.13-10.71-.12-14.9s10.58-4.55,15.23-.11c7.47,7.12,14.68,14.53,22,21.83q18.57,18.54,37.12,37.11c6.41,6.43,6.47,11.79.19,18.07q-29.15,29.16-58.36,58.26c-5.39,5.37-12.26,5.39-16.6.21-4-4.73-3.39-10.41,1.74-15.55q23.82-23.89,47.72-47.71C453.6,110.6,455,109.65,457.86,107.32Z" transform="translate(-400.36 -36.33)"/></svg>