<svg id="Layer_1" data-name="Layer 1" xmlns="http://www.w3.org/2000/svg" viewBox="0 0 471.8 471.82"><title>glass</title><path class="cls-1" d="M719.48,669.64c21,20.64,41.82,41,62.46,61.48q35.14,34.95,70,70.21c9.57,9.71,10.86,22.14,4.09,32.92-6.25,9.93-18.85,14.79-29.85,10.46-4.82-1.9-9.34-5.43-13.08-9.14q-61.32-61-122.29-122.36c-2.32-2.33-4.13-5.16-6.44-8.09C633.7,740.93,579.6,751.93,521,735.41c-43.62-12.31-77.79-38.26-102.62-76.06-49.69-75.68-36.24-177.46,31.07-237.71,68.27-61.11,168.9-63,240.11-4.55C758.05,473.33,781.84,580.76,719.48,669.64Zm3.73-111c0-83.33-67.27-151.2-150.2-151.45A151,151,0,0,0,421.17,558.76C421.11,642,488.6,710.1,571.3,710.22A151.22,151.22,0,0,0,723.21,558.66Z" transform="translate(-388.46 -374.48)"/></svg>